<mxfile host="app.diagrams.net" modified="2021-07-07T08:49:47.564Z" agent="5.0 (Macintosh)" etag="S1bQ_DwrE0UiN8HKuzBN" version="14.8.4" type="github">
  <diagram name="Page-1" id="bd83a815-5ea8-2e97-e5ec-87c9f400f2fa">
    <mxGraphModel dx="1395" dy="766" grid="1" gridSize="10" guides="1" tooltips="1" connect="1" arrows="1" fold="1" page="1" pageScale="1.5" pageWidth="1169" pageHeight="826" background="none" math="0" shadow="0">
      <root>
        <mxCell id="0" style=";html=1;" />
        <mxCell id="1" style=";html=1;" parent="0" />
        <mxCell id="jgzTNgnxc2cYcyluThHS-317" value="" style="shape=table;startSize=0;container=1;collapsible=0;childLayout=tableLayout;" vertex="1" parent="1">
          <mxGeometry x="410" y="420" width="1050" height="370" as="geometry" />
        </mxCell>
        <mxCell id="jgzTNgnxc2cYcyluThHS-318" value="" style="shape=partialRectangle;collapsible=0;dropTarget=0;pointerEvents=0;fillColor=none;top=0;left=0;bottom=0;right=0;points=[[0,0.5],[1,0.5]];portConstraint=eastwest;" vertex="1" parent="jgzTNgnxc2cYcyluThHS-317">
          <mxGeometry width="1050" height="53" as="geometry" />
        </mxCell>
        <mxCell id="jgzTNgnxc2cYcyluThHS-319" value="Item number" style="shape=partialRectangle;html=1;whiteSpace=wrap;connectable=0;overflow=hidden;fillColor=none;top=0;left=0;bottom=0;right=0;" vertex="1" parent="jgzTNgnxc2cYcyluThHS-318">
          <mxGeometry width="95" height="53" as="geometry" />
        </mxCell>
        <mxCell id="jgzTNgnxc2cYcyluThHS-320" value="Part number" style="shape=partialRectangle;html=1;whiteSpace=wrap;connectable=0;overflow=hidden;fillColor=none;top=0;left=0;bottom=0;right=0;" vertex="1" parent="jgzTNgnxc2cYcyluThHS-318">
          <mxGeometry x="95" width="96" height="53" as="geometry" />
        </mxCell>
        <mxCell id="jgzTNgnxc2cYcyluThHS-321" value="Item name" style="shape=partialRectangle;html=1;whiteSpace=wrap;connectable=0;overflow=hidden;fillColor=none;top=0;left=0;bottom=0;right=0;" vertex="1" parent="jgzTNgnxc2cYcyluThHS-318">
          <mxGeometry x="191" width="95" height="53" as="geometry" />
        </mxCell>
        <mxCell id="jgzTNgnxc2cYcyluThHS-322" value="Description" style="shape=partialRectangle;html=1;whiteSpace=wrap;connectable=0;overflow=hidden;fillColor=none;top=0;left=0;bottom=0;right=0;" vertex="1" parent="jgzTNgnxc2cYcyluThHS-318">
          <mxGeometry x="286" width="95" height="53" as="geometry" />
        </mxCell>
        <mxCell id="jgzTNgnxc2cYcyluThHS-323" value="Quantity" style="shape=partialRectangle;html=1;whiteSpace=wrap;connectable=0;overflow=hidden;fillColor=none;top=0;left=0;bottom=0;right=0;" vertex="1" parent="jgzTNgnxc2cYcyluThHS-318">
          <mxGeometry x="381" width="96" height="53" as="geometry" />
        </mxCell>
        <mxCell id="jgzTNgnxc2cYcyluThHS-324" value="Unit of measure" style="shape=partialRectangle;html=1;whiteSpace=wrap;connectable=0;overflow=hidden;fillColor=none;top=0;left=0;bottom=0;right=0;" vertex="1" parent="jgzTNgnxc2cYcyluThHS-318">
          <mxGeometry x="477" width="96" height="53" as="geometry" />
        </mxCell>
        <mxCell id="jgzTNgnxc2cYcyluThHS-325" value="Manufacturer name" style="shape=partialRectangle;html=1;whiteSpace=wrap;connectable=0;overflow=hidden;fillColor=none;top=0;left=0;bottom=0;right=0;" vertex="1" parent="jgzTNgnxc2cYcyluThHS-318">
          <mxGeometry x="573" width="96" height="53" as="geometry" />
        </mxCell>
        <mxCell id="jgzTNgnxc2cYcyluThHS-326" value="Seller name" style="shape=partialRectangle;html=1;whiteSpace=wrap;connectable=0;overflow=hidden;fillColor=none;top=0;left=0;bottom=0;right=0;" vertex="1" parent="jgzTNgnxc2cYcyluThHS-318">
          <mxGeometry x="669" width="95" height="53" as="geometry" />
        </mxCell>
        <mxCell id="jgzTNgnxc2cYcyluThHS-327" value="Cost" style="shape=partialRectangle;html=1;whiteSpace=wrap;connectable=0;overflow=hidden;fillColor=none;top=0;left=0;bottom=0;right=0;" vertex="1" parent="jgzTNgnxc2cYcyluThHS-318">
          <mxGeometry x="764" width="95" height="53" as="geometry" />
        </mxCell>
        <mxCell id="jgzTNgnxc2cYcyluThHS-328" value="Procurement type" style="shape=partialRectangle;html=1;whiteSpace=wrap;connectable=0;overflow=hidden;fillColor=none;top=0;left=0;bottom=0;right=0;" vertex="1" parent="jgzTNgnxc2cYcyluThHS-318">
          <mxGeometry x="859" width="96" height="53" as="geometry" />
        </mxCell>
        <mxCell id="jgzTNgnxc2cYcyluThHS-329" value="BOM note" style="shape=partialRectangle;html=1;whiteSpace=wrap;connectable=0;overflow=hidden;fillColor=none;top=0;left=0;bottom=0;right=0;" vertex="1" parent="jgzTNgnxc2cYcyluThHS-318">
          <mxGeometry x="955" width="95" height="53" as="geometry" />
        </mxCell>
        <mxCell id="jgzTNgnxc2cYcyluThHS-419" style="shape=partialRectangle;collapsible=0;dropTarget=0;pointerEvents=0;fillColor=none;top=0;left=0;bottom=0;right=0;points=[[0,0.5],[1,0.5]];portConstraint=eastwest;" vertex="1" parent="jgzTNgnxc2cYcyluThHS-317">
          <mxGeometry y="53" width="1050" height="53" as="geometry" />
        </mxCell>
        <mxCell id="jgzTNgnxc2cYcyluThHS-420" value="1" style="shape=partialRectangle;html=1;whiteSpace=wrap;connectable=0;overflow=hidden;fillColor=none;top=0;left=0;bottom=0;right=0;" vertex="1" parent="jgzTNgnxc2cYcyluThHS-419">
          <mxGeometry width="95" height="53" as="geometry" />
        </mxCell>
        <mxCell id="jgzTNgnxc2cYcyluThHS-421" style="shape=partialRectangle;html=1;whiteSpace=wrap;connectable=0;overflow=hidden;fillColor=none;top=0;left=0;bottom=0;right=0;" vertex="1" parent="jgzTNgnxc2cYcyluThHS-419">
          <mxGeometry x="95" width="96" height="53" as="geometry" />
        </mxCell>
        <mxCell id="jgzTNgnxc2cYcyluThHS-422" style="shape=partialRectangle;html=1;whiteSpace=wrap;connectable=0;overflow=hidden;fillColor=none;top=0;left=0;bottom=0;right=0;" vertex="1" parent="jgzTNgnxc2cYcyluThHS-419">
          <mxGeometry x="191" width="95" height="53" as="geometry" />
        </mxCell>
        <mxCell id="jgzTNgnxc2cYcyluThHS-423" style="shape=partialRectangle;html=1;whiteSpace=wrap;connectable=0;overflow=hidden;fillColor=none;top=0;left=0;bottom=0;right=0;" vertex="1" parent="jgzTNgnxc2cYcyluThHS-419">
          <mxGeometry x="286" width="95" height="53" as="geometry" />
        </mxCell>
        <mxCell id="jgzTNgnxc2cYcyluThHS-424" value="" style="shape=partialRectangle;html=1;whiteSpace=wrap;connectable=0;overflow=hidden;fillColor=none;top=0;left=0;bottom=0;right=0;" vertex="1" parent="jgzTNgnxc2cYcyluThHS-419">
          <mxGeometry x="381" width="96" height="53" as="geometry" />
        </mxCell>
        <mxCell id="jgzTNgnxc2cYcyluThHS-425" style="shape=partialRectangle;html=1;whiteSpace=wrap;connectable=0;overflow=hidden;fillColor=none;top=0;left=0;bottom=0;right=0;" vertex="1" parent="jgzTNgnxc2cYcyluThHS-419">
          <mxGeometry x="477" width="96" height="53" as="geometry" />
        </mxCell>
        <mxCell id="jgzTNgnxc2cYcyluThHS-426" style="shape=partialRectangle;html=1;whiteSpace=wrap;connectable=0;overflow=hidden;fillColor=none;top=0;left=0;bottom=0;right=0;" vertex="1" parent="jgzTNgnxc2cYcyluThHS-419">
          <mxGeometry x="573" width="96" height="53" as="geometry" />
        </mxCell>
        <mxCell id="jgzTNgnxc2cYcyluThHS-427" style="shape=partialRectangle;html=1;whiteSpace=wrap;connectable=0;overflow=hidden;fillColor=none;top=0;left=0;bottom=0;right=0;" vertex="1" parent="jgzTNgnxc2cYcyluThHS-419">
          <mxGeometry x="669" width="95" height="53" as="geometry" />
        </mxCell>
        <mxCell id="jgzTNgnxc2cYcyluThHS-428" style="shape=partialRectangle;html=1;whiteSpace=wrap;connectable=0;overflow=hidden;fillColor=none;top=0;left=0;bottom=0;right=0;" vertex="1" parent="jgzTNgnxc2cYcyluThHS-419">
          <mxGeometry x="764" width="95" height="53" as="geometry" />
        </mxCell>
        <mxCell id="jgzTNgnxc2cYcyluThHS-429" style="shape=partialRectangle;html=1;whiteSpace=wrap;connectable=0;overflow=hidden;fillColor=none;top=0;left=0;bottom=0;right=0;" vertex="1" parent="jgzTNgnxc2cYcyluThHS-419">
          <mxGeometry x="859" width="96" height="53" as="geometry" />
        </mxCell>
        <mxCell id="jgzTNgnxc2cYcyluThHS-430" style="shape=partialRectangle;html=1;whiteSpace=wrap;connectable=0;overflow=hidden;fillColor=none;top=0;left=0;bottom=0;right=0;" vertex="1" parent="jgzTNgnxc2cYcyluThHS-419">
          <mxGeometry x="955" width="95" height="53" as="geometry" />
        </mxCell>
        <mxCell id="jgzTNgnxc2cYcyluThHS-407" style="shape=partialRectangle;collapsible=0;dropTarget=0;pointerEvents=0;fillColor=none;top=0;left=0;bottom=0;right=0;points=[[0,0.5],[1,0.5]];portConstraint=eastwest;" vertex="1" parent="jgzTNgnxc2cYcyluThHS-317">
          <mxGeometry y="106" width="1050" height="53" as="geometry" />
        </mxCell>
        <mxCell id="jgzTNgnxc2cYcyluThHS-408" value="2" style="shape=partialRectangle;html=1;whiteSpace=wrap;connectable=0;overflow=hidden;fillColor=none;top=0;left=0;bottom=0;right=0;" vertex="1" parent="jgzTNgnxc2cYcyluThHS-407">
          <mxGeometry width="95" height="53" as="geometry" />
        </mxCell>
        <mxCell id="jgzTNgnxc2cYcyluThHS-409" style="shape=partialRectangle;html=1;whiteSpace=wrap;connectable=0;overflow=hidden;fillColor=none;top=0;left=0;bottom=0;right=0;" vertex="1" parent="jgzTNgnxc2cYcyluThHS-407">
          <mxGeometry x="95" width="96" height="53" as="geometry" />
        </mxCell>
        <mxCell id="jgzTNgnxc2cYcyluThHS-410" style="shape=partialRectangle;html=1;whiteSpace=wrap;connectable=0;overflow=hidden;fillColor=none;top=0;left=0;bottom=0;right=0;" vertex="1" parent="jgzTNgnxc2cYcyluThHS-407">
          <mxGeometry x="191" width="95" height="53" as="geometry" />
        </mxCell>
        <mxCell id="jgzTNgnxc2cYcyluThHS-411" style="shape=partialRectangle;html=1;whiteSpace=wrap;connectable=0;overflow=hidden;fillColor=none;top=0;left=0;bottom=0;right=0;" vertex="1" parent="jgzTNgnxc2cYcyluThHS-407">
          <mxGeometry x="286" width="95" height="53" as="geometry" />
        </mxCell>
        <mxCell id="jgzTNgnxc2cYcyluThHS-412" style="shape=partialRectangle;html=1;whiteSpace=wrap;connectable=0;overflow=hidden;fillColor=none;top=0;left=0;bottom=0;right=0;" vertex="1" parent="jgzTNgnxc2cYcyluThHS-407">
          <mxGeometry x="381" width="96" height="53" as="geometry" />
        </mxCell>
        <mxCell id="jgzTNgnxc2cYcyluThHS-413" style="shape=partialRectangle;html=1;whiteSpace=wrap;connectable=0;overflow=hidden;fillColor=none;top=0;left=0;bottom=0;right=0;" vertex="1" parent="jgzTNgnxc2cYcyluThHS-407">
          <mxGeometry x="477" width="96" height="53" as="geometry" />
        </mxCell>
        <mxCell id="jgzTNgnxc2cYcyluThHS-414" style="shape=partialRectangle;html=1;whiteSpace=wrap;connectable=0;overflow=hidden;fillColor=none;top=0;left=0;bottom=0;right=0;" vertex="1" parent="jgzTNgnxc2cYcyluThHS-407">
          <mxGeometry x="573" width="96" height="53" as="geometry" />
        </mxCell>
        <mxCell id="jgzTNgnxc2cYcyluThHS-415" style="shape=partialRectangle;html=1;whiteSpace=wrap;connectable=0;overflow=hidden;fillColor=none;top=0;left=0;bottom=0;right=0;" vertex="1" parent="jgzTNgnxc2cYcyluThHS-407">
          <mxGeometry x="669" width="95" height="53" as="geometry" />
        </mxCell>
        <mxCell id="jgzTNgnxc2cYcyluThHS-416" style="shape=partialRectangle;html=1;whiteSpace=wrap;connectable=0;overflow=hidden;fillColor=none;top=0;left=0;bottom=0;right=0;" vertex="1" parent="jgzTNgnxc2cYcyluThHS-407">
          <mxGeometry x="764" width="95" height="53" as="geometry" />
        </mxCell>
        <mxCell id="jgzTNgnxc2cYcyluThHS-417" style="shape=partialRectangle;html=1;whiteSpace=wrap;connectable=0;overflow=hidden;fillColor=none;top=0;left=0;bottom=0;right=0;" vertex="1" parent="jgzTNgnxc2cYcyluThHS-407">
          <mxGeometry x="859" width="96" height="53" as="geometry" />
        </mxCell>
        <mxCell id="jgzTNgnxc2cYcyluThHS-418" style="shape=partialRectangle;html=1;whiteSpace=wrap;connectable=0;overflow=hidden;fillColor=none;top=0;left=0;bottom=0;right=0;" vertex="1" parent="jgzTNgnxc2cYcyluThHS-407">
          <mxGeometry x="955" width="95" height="53" as="geometry" />
        </mxCell>
        <mxCell id="jgzTNgnxc2cYcyluThHS-330" value="" style="shape=partialRectangle;collapsible=0;dropTarget=0;pointerEvents=0;fillColor=none;top=0;left=0;bottom=0;right=0;points=[[0,0.5],[1,0.5]];portConstraint=eastwest;" vertex="1" parent="jgzTNgnxc2cYcyluThHS-317">
          <mxGeometry y="159" width="1050" height="52" as="geometry" />
        </mxCell>
        <mxCell id="jgzTNgnxc2cYcyluThHS-331" value="3" style="shape=partialRectangle;html=1;whiteSpace=wrap;connectable=0;overflow=hidden;fillColor=none;top=0;left=0;bottom=0;right=0;" vertex="1" parent="jgzTNgnxc2cYcyluThHS-330">
          <mxGeometry width="95" height="52" as="geometry" />
        </mxCell>
        <mxCell id="jgzTNgnxc2cYcyluThHS-332" value="" style="shape=partialRectangle;html=1;whiteSpace=wrap;connectable=0;overflow=hidden;fillColor=none;top=0;left=0;bottom=0;right=0;" vertex="1" parent="jgzTNgnxc2cYcyluThHS-330">
          <mxGeometry x="95" width="96" height="52" as="geometry" />
        </mxCell>
        <mxCell id="jgzTNgnxc2cYcyluThHS-333" value="" style="shape=partialRectangle;html=1;whiteSpace=wrap;connectable=0;overflow=hidden;fillColor=none;top=0;left=0;bottom=0;right=0;" vertex="1" parent="jgzTNgnxc2cYcyluThHS-330">
          <mxGeometry x="191" width="95" height="52" as="geometry" />
        </mxCell>
        <mxCell id="jgzTNgnxc2cYcyluThHS-334" value="" style="shape=partialRectangle;html=1;whiteSpace=wrap;connectable=0;overflow=hidden;fillColor=none;top=0;left=0;bottom=0;right=0;" vertex="1" parent="jgzTNgnxc2cYcyluThHS-330">
          <mxGeometry x="286" width="95" height="52" as="geometry" />
        </mxCell>
        <mxCell id="jgzTNgnxc2cYcyluThHS-335" value="" style="shape=partialRectangle;html=1;whiteSpace=wrap;connectable=0;overflow=hidden;fillColor=none;top=0;left=0;bottom=0;right=0;" vertex="1" parent="jgzTNgnxc2cYcyluThHS-330">
          <mxGeometry x="381" width="96" height="52" as="geometry" />
        </mxCell>
        <mxCell id="jgzTNgnxc2cYcyluThHS-336" value="" style="shape=partialRectangle;html=1;whiteSpace=wrap;connectable=0;overflow=hidden;fillColor=none;top=0;left=0;bottom=0;right=0;" vertex="1" parent="jgzTNgnxc2cYcyluThHS-330">
          <mxGeometry x="477" width="96" height="52" as="geometry" />
        </mxCell>
        <mxCell id="jgzTNgnxc2cYcyluThHS-337" value="" style="shape=partialRectangle;html=1;whiteSpace=wrap;connectable=0;overflow=hidden;fillColor=none;top=0;left=0;bottom=0;right=0;" vertex="1" parent="jgzTNgnxc2cYcyluThHS-330">
          <mxGeometry x="573" width="96" height="52" as="geometry" />
        </mxCell>
        <mxCell id="jgzTNgnxc2cYcyluThHS-338" value="" style="shape=partialRectangle;html=1;whiteSpace=wrap;connectable=0;overflow=hidden;fillColor=none;top=0;left=0;bottom=0;right=0;" vertex="1" parent="jgzTNgnxc2cYcyluThHS-330">
          <mxGeometry x="669" width="95" height="52" as="geometry" />
        </mxCell>
        <mxCell id="jgzTNgnxc2cYcyluThHS-339" value="" style="shape=partialRectangle;html=1;whiteSpace=wrap;connectable=0;overflow=hidden;fillColor=none;top=0;left=0;bottom=0;right=0;" vertex="1" parent="jgzTNgnxc2cYcyluThHS-330">
          <mxGeometry x="764" width="95" height="52" as="geometry" />
        </mxCell>
        <mxCell id="jgzTNgnxc2cYcyluThHS-340" value="" style="shape=partialRectangle;html=1;whiteSpace=wrap;connectable=0;overflow=hidden;fillColor=none;top=0;left=0;bottom=0;right=0;" vertex="1" parent="jgzTNgnxc2cYcyluThHS-330">
          <mxGeometry x="859" width="96" height="52" as="geometry" />
        </mxCell>
        <mxCell id="jgzTNgnxc2cYcyluThHS-341" value="" style="shape=partialRectangle;html=1;whiteSpace=wrap;connectable=0;overflow=hidden;fillColor=none;top=0;left=0;bottom=0;right=0;" vertex="1" parent="jgzTNgnxc2cYcyluThHS-330">
          <mxGeometry x="955" width="95" height="52" as="geometry" />
        </mxCell>
        <mxCell id="jgzTNgnxc2cYcyluThHS-342" value="" style="shape=partialRectangle;collapsible=0;dropTarget=0;pointerEvents=0;fillColor=none;top=0;left=0;bottom=0;right=0;points=[[0,0.5],[1,0.5]];portConstraint=eastwest;" vertex="1" parent="jgzTNgnxc2cYcyluThHS-317">
          <mxGeometry y="211" width="1050" height="53" as="geometry" />
        </mxCell>
        <mxCell id="jgzTNgnxc2cYcyluThHS-343" value="4" style="shape=partialRectangle;html=1;whiteSpace=wrap;connectable=0;overflow=hidden;fillColor=none;top=0;left=0;bottom=0;right=0;" vertex="1" parent="jgzTNgnxc2cYcyluThHS-342">
          <mxGeometry width="95" height="53" as="geometry" />
        </mxCell>
        <mxCell id="jgzTNgnxc2cYcyluThHS-344" value="" style="shape=partialRectangle;html=1;whiteSpace=wrap;connectable=0;overflow=hidden;fillColor=none;top=0;left=0;bottom=0;right=0;" vertex="1" parent="jgzTNgnxc2cYcyluThHS-342">
          <mxGeometry x="95" width="96" height="53" as="geometry" />
        </mxCell>
        <mxCell id="jgzTNgnxc2cYcyluThHS-345" value="" style="shape=partialRectangle;html=1;whiteSpace=wrap;connectable=0;overflow=hidden;fillColor=none;top=0;left=0;bottom=0;right=0;" vertex="1" parent="jgzTNgnxc2cYcyluThHS-342">
          <mxGeometry x="191" width="95" height="53" as="geometry" />
        </mxCell>
        <mxCell id="jgzTNgnxc2cYcyluThHS-346" value="" style="shape=partialRectangle;html=1;whiteSpace=wrap;connectable=0;overflow=hidden;fillColor=none;top=0;left=0;bottom=0;right=0;" vertex="1" parent="jgzTNgnxc2cYcyluThHS-342">
          <mxGeometry x="286" width="95" height="53" as="geometry" />
        </mxCell>
        <mxCell id="jgzTNgnxc2cYcyluThHS-347" value="" style="shape=partialRectangle;html=1;whiteSpace=wrap;connectable=0;overflow=hidden;fillColor=none;top=0;left=0;bottom=0;right=0;" vertex="1" parent="jgzTNgnxc2cYcyluThHS-342">
          <mxGeometry x="381" width="96" height="53" as="geometry" />
        </mxCell>
        <mxCell id="jgzTNgnxc2cYcyluThHS-348" value="" style="shape=partialRectangle;html=1;whiteSpace=wrap;connectable=0;overflow=hidden;fillColor=none;top=0;left=0;bottom=0;right=0;" vertex="1" parent="jgzTNgnxc2cYcyluThHS-342">
          <mxGeometry x="477" width="96" height="53" as="geometry" />
        </mxCell>
        <mxCell id="jgzTNgnxc2cYcyluThHS-349" value="" style="shape=partialRectangle;html=1;whiteSpace=wrap;connectable=0;overflow=hidden;fillColor=none;top=0;left=0;bottom=0;right=0;" vertex="1" parent="jgzTNgnxc2cYcyluThHS-342">
          <mxGeometry x="573" width="96" height="53" as="geometry" />
        </mxCell>
        <mxCell id="jgzTNgnxc2cYcyluThHS-350" value="" style="shape=partialRectangle;html=1;whiteSpace=wrap;connectable=0;overflow=hidden;fillColor=none;top=0;left=0;bottom=0;right=0;" vertex="1" parent="jgzTNgnxc2cYcyluThHS-342">
          <mxGeometry x="669" width="95" height="53" as="geometry" />
        </mxCell>
        <mxCell id="jgzTNgnxc2cYcyluThHS-351" value="" style="shape=partialRectangle;html=1;whiteSpace=wrap;connectable=0;overflow=hidden;fillColor=none;top=0;left=0;bottom=0;right=0;" vertex="1" parent="jgzTNgnxc2cYcyluThHS-342">
          <mxGeometry x="764" width="95" height="53" as="geometry" />
        </mxCell>
        <mxCell id="jgzTNgnxc2cYcyluThHS-352" value="" style="shape=partialRectangle;html=1;whiteSpace=wrap;connectable=0;overflow=hidden;fillColor=none;top=0;left=0;bottom=0;right=0;" vertex="1" parent="jgzTNgnxc2cYcyluThHS-342">
          <mxGeometry x="859" width="96" height="53" as="geometry" />
        </mxCell>
        <mxCell id="jgzTNgnxc2cYcyluThHS-353" value="" style="shape=partialRectangle;html=1;whiteSpace=wrap;connectable=0;overflow=hidden;fillColor=none;top=0;left=0;bottom=0;right=0;" vertex="1" parent="jgzTNgnxc2cYcyluThHS-342">
          <mxGeometry x="955" width="95" height="53" as="geometry" />
        </mxCell>
        <mxCell id="jgzTNgnxc2cYcyluThHS-354" value="" style="shape=partialRectangle;collapsible=0;dropTarget=0;pointerEvents=0;fillColor=none;top=0;left=0;bottom=0;right=0;points=[[0,0.5],[1,0.5]];portConstraint=eastwest;" vertex="1" parent="jgzTNgnxc2cYcyluThHS-317">
          <mxGeometry y="264" width="1050" height="53" as="geometry" />
        </mxCell>
        <mxCell id="jgzTNgnxc2cYcyluThHS-355" value="5" style="shape=partialRectangle;html=1;whiteSpace=wrap;connectable=0;overflow=hidden;fillColor=none;top=0;left=0;bottom=0;right=0;" vertex="1" parent="jgzTNgnxc2cYcyluThHS-354">
          <mxGeometry width="95" height="53" as="geometry" />
        </mxCell>
        <mxCell id="jgzTNgnxc2cYcyluThHS-356" value="" style="shape=partialRectangle;html=1;whiteSpace=wrap;connectable=0;overflow=hidden;fillColor=none;top=0;left=0;bottom=0;right=0;" vertex="1" parent="jgzTNgnxc2cYcyluThHS-354">
          <mxGeometry x="95" width="96" height="53" as="geometry" />
        </mxCell>
        <mxCell id="jgzTNgnxc2cYcyluThHS-357" value="" style="shape=partialRectangle;html=1;whiteSpace=wrap;connectable=0;overflow=hidden;fillColor=none;top=0;left=0;bottom=0;right=0;" vertex="1" parent="jgzTNgnxc2cYcyluThHS-354">
          <mxGeometry x="191" width="95" height="53" as="geometry" />
        </mxCell>
        <mxCell id="jgzTNgnxc2cYcyluThHS-358" value="" style="shape=partialRectangle;html=1;whiteSpace=wrap;connectable=0;overflow=hidden;fillColor=none;top=0;left=0;bottom=0;right=0;" vertex="1" parent="jgzTNgnxc2cYcyluThHS-354">
          <mxGeometry x="286" width="95" height="53" as="geometry" />
        </mxCell>
        <mxCell id="jgzTNgnxc2cYcyluThHS-359" value="" style="shape=partialRectangle;html=1;whiteSpace=wrap;connectable=0;overflow=hidden;fillColor=none;top=0;left=0;bottom=0;right=0;" vertex="1" parent="jgzTNgnxc2cYcyluThHS-354">
          <mxGeometry x="381" width="96" height="53" as="geometry" />
        </mxCell>
        <mxCell id="jgzTNgnxc2cYcyluThHS-360" value="" style="shape=partialRectangle;html=1;whiteSpace=wrap;connectable=0;overflow=hidden;fillColor=none;top=0;left=0;bottom=0;right=0;" vertex="1" parent="jgzTNgnxc2cYcyluThHS-354">
          <mxGeometry x="477" width="96" height="53" as="geometry" />
        </mxCell>
        <mxCell id="jgzTNgnxc2cYcyluThHS-361" value="" style="shape=partialRectangle;html=1;whiteSpace=wrap;connectable=0;overflow=hidden;fillColor=none;top=0;left=0;bottom=0;right=0;" vertex="1" parent="jgzTNgnxc2cYcyluThHS-354">
          <mxGeometry x="573" width="96" height="53" as="geometry" />
        </mxCell>
        <mxCell id="jgzTNgnxc2cYcyluThHS-362" value="" style="shape=partialRectangle;html=1;whiteSpace=wrap;connectable=0;overflow=hidden;fillColor=none;top=0;left=0;bottom=0;right=0;" vertex="1" parent="jgzTNgnxc2cYcyluThHS-354">
          <mxGeometry x="669" width="95" height="53" as="geometry" />
        </mxCell>
        <mxCell id="jgzTNgnxc2cYcyluThHS-363" value="" style="shape=partialRectangle;html=1;whiteSpace=wrap;connectable=0;overflow=hidden;fillColor=none;top=0;left=0;bottom=0;right=0;" vertex="1" parent="jgzTNgnxc2cYcyluThHS-354">
          <mxGeometry x="764" width="95" height="53" as="geometry" />
        </mxCell>
        <mxCell id="jgzTNgnxc2cYcyluThHS-364" value="" style="shape=partialRectangle;html=1;whiteSpace=wrap;connectable=0;overflow=hidden;fillColor=none;top=0;left=0;bottom=0;right=0;" vertex="1" parent="jgzTNgnxc2cYcyluThHS-354">
          <mxGeometry x="859" width="96" height="53" as="geometry" />
        </mxCell>
        <mxCell id="jgzTNgnxc2cYcyluThHS-365" value="" style="shape=partialRectangle;html=1;whiteSpace=wrap;connectable=0;overflow=hidden;fillColor=none;top=0;left=0;bottom=0;right=0;" vertex="1" parent="jgzTNgnxc2cYcyluThHS-354">
          <mxGeometry x="955" width="95" height="53" as="geometry" />
        </mxCell>
        <mxCell id="jgzTNgnxc2cYcyluThHS-366" value="" style="shape=partialRectangle;collapsible=0;dropTarget=0;pointerEvents=0;fillColor=none;top=0;left=0;bottom=0;right=0;points=[[0,0.5],[1,0.5]];portConstraint=eastwest;" vertex="1" parent="jgzTNgnxc2cYcyluThHS-317">
          <mxGeometry y="317" width="1050" height="53" as="geometry" />
        </mxCell>
        <mxCell id="jgzTNgnxc2cYcyluThHS-367" value="6" style="shape=partialRectangle;html=1;whiteSpace=wrap;connectable=0;overflow=hidden;fillColor=none;top=0;left=0;bottom=0;right=0;" vertex="1" parent="jgzTNgnxc2cYcyluThHS-366">
          <mxGeometry width="95" height="53" as="geometry" />
        </mxCell>
        <mxCell id="jgzTNgnxc2cYcyluThHS-368" value="" style="shape=partialRectangle;html=1;whiteSpace=wrap;connectable=0;overflow=hidden;fillColor=none;top=0;left=0;bottom=0;right=0;" vertex="1" parent="jgzTNgnxc2cYcyluThHS-366">
          <mxGeometry x="95" width="96" height="53" as="geometry" />
        </mxCell>
        <mxCell id="jgzTNgnxc2cYcyluThHS-369" value="" style="shape=partialRectangle;html=1;whiteSpace=wrap;connectable=0;overflow=hidden;fillColor=none;top=0;left=0;bottom=0;right=0;" vertex="1" parent="jgzTNgnxc2cYcyluThHS-366">
          <mxGeometry x="191" width="95" height="53" as="geometry" />
        </mxCell>
        <mxCell id="jgzTNgnxc2cYcyluThHS-370" value="" style="shape=partialRectangle;html=1;whiteSpace=wrap;connectable=0;overflow=hidden;fillColor=none;top=0;left=0;bottom=0;right=0;" vertex="1" parent="jgzTNgnxc2cYcyluThHS-366">
          <mxGeometry x="286" width="95" height="53" as="geometry" />
        </mxCell>
        <mxCell id="jgzTNgnxc2cYcyluThHS-371" value="" style="shape=partialRectangle;html=1;whiteSpace=wrap;connectable=0;overflow=hidden;fillColor=none;top=0;left=0;bottom=0;right=0;" vertex="1" parent="jgzTNgnxc2cYcyluThHS-366">
          <mxGeometry x="381" width="96" height="53" as="geometry" />
        </mxCell>
        <mxCell id="jgzTNgnxc2cYcyluThHS-372" value="" style="shape=partialRectangle;html=1;whiteSpace=wrap;connectable=0;overflow=hidden;fillColor=none;top=0;left=0;bottom=0;right=0;" vertex="1" parent="jgzTNgnxc2cYcyluThHS-366">
          <mxGeometry x="477" width="96" height="53" as="geometry" />
        </mxCell>
        <mxCell id="jgzTNgnxc2cYcyluThHS-373" value="" style="shape=partialRectangle;html=1;whiteSpace=wrap;connectable=0;overflow=hidden;fillColor=none;top=0;left=0;bottom=0;right=0;" vertex="1" parent="jgzTNgnxc2cYcyluThHS-366">
          <mxGeometry x="573" width="96" height="53" as="geometry" />
        </mxCell>
        <mxCell id="jgzTNgnxc2cYcyluThHS-374" value="" style="shape=partialRectangle;html=1;whiteSpace=wrap;connectable=0;overflow=hidden;fillColor=none;top=0;left=0;bottom=0;right=0;" vertex="1" parent="jgzTNgnxc2cYcyluThHS-366">
          <mxGeometry x="669" width="95" height="53" as="geometry" />
        </mxCell>
        <mxCell id="jgzTNgnxc2cYcyluThHS-375" value="" style="shape=partialRectangle;html=1;whiteSpace=wrap;connectable=0;overflow=hidden;fillColor=none;top=0;left=0;bottom=0;right=0;" vertex="1" parent="jgzTNgnxc2cYcyluThHS-366">
          <mxGeometry x="764" width="95" height="53" as="geometry" />
        </mxCell>
        <mxCell id="jgzTNgnxc2cYcyluThHS-376" value="" style="shape=partialRectangle;html=1;whiteSpace=wrap;connectable=0;overflow=hidden;fillColor=none;top=0;left=0;bottom=0;right=0;" vertex="1" parent="jgzTNgnxc2cYcyluThHS-366">
          <mxGeometry x="859" width="96" height="53" as="geometry" />
        </mxCell>
        <mxCell id="jgzTNgnxc2cYcyluThHS-377" value="" style="shape=partialRectangle;html=1;whiteSpace=wrap;connectable=0;overflow=hidden;fillColor=none;top=0;left=0;bottom=0;right=0;" vertex="1" parent="jgzTNgnxc2cYcyluThHS-366">
          <mxGeometry x="955" width="95" height="53" as="geometry" />
        </mxCell>
      </root>
    </mxGraphModel>
  </diagram>
</mxfile>
